M48
; DRILL file {KiCad 9.0.7} date 2026-04-01T21:10:00-0700
; FORMAT={-:-/ absolute / metric / decimal}
; #@! TF.CreationDate,2026-04-01T21:10:00-07:00
; #@! TF.GenerationSoftware,Kicad,Pcbnew,9.0.7
; #@! TF.FileFunction,Plated,1,2,PTH
FMAT,2
METRIC
; #@! TA.AperFunction,Plated,PTH,ViaDrill
T1C0.300
; #@! TA.AperFunction,Plated,PTH,ComponentDrill
T2C0.787
; #@! TA.AperFunction,Plated,PTH,ComponentDrill
T3C0.800
; #@! TA.AperFunction,Plated,PTH,ComponentDrill
T4C0.850
; #@! TA.AperFunction,Plated,PTH,ComponentDrill
T5C0.900
; #@! TA.AperFunction,Plated,PTH,ComponentDrill
T6C1.000
%
G90
G05
T1
X172.074Y-96.574
X173.32Y-95.606
T2
X168.656Y-64.567
X168.656Y-67.107
X168.656Y-69.647
X168.656Y-72.187
X168.656Y-74.727
X168.656Y-77.267
X168.656Y-79.807
X168.656Y-82.347
X176.276Y-64.567
X176.276Y-67.107
X176.276Y-69.647
X176.276Y-72.187
X176.276Y-74.727
X176.276Y-77.267
X176.276Y-79.807
X176.276Y-82.347
T3
X117.551Y-74.284
X117.653Y-81.432
X125.171Y-74.284
X125.273Y-81.432
X130.08Y-94.386
X132.08Y-94.386
X163.017Y-90.526
X163.017Y-93.066
X163.017Y-95.606
X163.017Y-98.146
X170.637Y-90.526
X170.637Y-93.066
X170.637Y-95.606
X170.637Y-98.146
T4
X126.289Y-64.364
X128.829Y-64.364
X131.369Y-64.364
T5
X107.239Y-70.104
X109.779Y-70.104
X113.843Y-94.082
X116.383Y-94.082
X126.035Y-51.714
X128.575Y-51.714
X131.42Y-114.757
X133.96Y-114.757
X149.149Y-66.396
X149.149Y-129.824
X151.689Y-66.396
X151.689Y-129.824
X167.081Y-114.757
X169.621Y-114.757
X171.552Y-51.664
X174.092Y-51.664
X184.556Y-94.082
X187.096Y-94.082
X191.059Y-70.104
X193.599Y-70.104
T6
X135.23Y-74.858
X135.23Y-79.858
X150.368Y-104.699
X150.368Y-115.519
X150.368Y-118.059
M30
